<svg width="70" height="70" viewBox="0 0 70 70" fill="none" xmlns="http://www.w3.org/2000/svg">
<rect x="1.5" y="1.5" width="67" height="67" rx="33.5" fill="#34D399"/>
<rect x="1.5" y="1.5" width="67" height="67" rx="33.5" stroke="black" stroke-width="3"/>
<path d="M32.5 20h5l.8 3.2a10 10 0 0 1 2.4 1.4l3.1-1 2.5 4.3-2.3 2.2a10 10 0 0 1 0 2.8l2.3 2.2-2.5 4.3-3.1-1a10 10 0 0 1-2.4 1.4L37.5 43h-5l-.8-3.2a10 10 0 0 1-2.4-1.4l-3.1 1-2.5-4.3 2.3-2.2a10 10 0 0 1 0-2.8l-2.3-2.2 2.5-4.3 3.1 1a10 10 0 0 1 2.4-1.4L32.5 20z" stroke="black" stroke-width="2.5" fill="none" stroke-linejoin="round"/>
<circle cx="35" cy="31.5" r="4" stroke="black" stroke-width="2.5" fill="none"/>
<path d="M28 46l-2 6M35 46l0 6M42 46l2 6" stroke="black" stroke-width="2.5" stroke-linecap="round"/>
<circle cx="26" cy="52" r="1.5" fill="black"/>
<circle cx="35" cy="52" r="1.5" fill="black"/>
<circle cx="44" cy="52" r="1.5" fill="black"/>
</svg>
